<svg width="1065" height="398" viewBox="0 0 1065 398" fill="none" xmlns="http://www.w3.org/2000/svg">
<g clip-path="url(#clip0_5_60)">
<path d="M176.053 86.6696C170.553 82.3932 165.152 78.625 159.911 75.4678C133.702 99.2213 112.404 128.545 95.5895 159.549C97.8288 168.154 100.581 176.913 103.889 185.725C113.97 164.009 126.513 143.422 141.116 124.457C151.518 110.804 163.167 98.0213 176.053 86.6696Z" fill="#0057A8"/>
<path d="M285.039 248.004C291.404 245.459 297.365 242.655 302.912 239.602C301.026 231.044 298.584 222.237 295.629 213.27C291.964 222.082 287.787 230.841 283.153 239.498C283.915 242.401 284.527 245.2 285.039 248.004Z" fill="#EE2A24"/>
<path d="M82.9533 149.612C76.5883 152.157 70.6276 154.961 65.0804 158.014C72.6592 192.433 87.0698 226.019 105.874 255.794C114.38 258.137 123.291 260.122 132.559 261.6C121.603 245.901 111.99 229.251 103.89 211.895C95.8165 194.766 88.9388 176.635 84.8406 158.117C84.078 155.215 83.466 152.416 82.9533 149.612Z" fill="#EE2A24"/>
<path d="M283.153 158.118C274.976 195.115 257 230.682 235.434 261.6C244.754 260.019 253.716 258.033 262.274 255.643C280.571 225.516 295.169 192.828 302.865 158.325C297.469 155.318 291.508 152.468 284.988 149.819C284.48 152.515 283.919 155.319 283.153 158.118Z" fill="#0057A8"/>
<path d="M266.4 56.0613C279.997 63.9038 287.942 82.849 288.808 108.668C295.531 110.959 302.001 113.504 308.159 116.257C308.681 90.222 303.355 59.5153 281.169 42.8609C254.875 23.12 218.438 34.2236 193.217 50.153C198.665 53.9727 204.066 58.2501 209.41 62.9354C224.181 54.9936 248.32 45.6221 266.4 56.0613Z" fill="#0057A8"/>
<path d="M155.277 122.933C164.695 122.063 174.274 121.657 183.999 121.657C193.93 121.657 203.505 122.066 212.772 122.88C206.661 115.447 200.447 108.724 194.236 102.613C187.466 102.406 180.686 102.406 173.917 102.613C167.551 108.828 161.337 115.597 155.277 122.933Z" fill="#0057A8"/>
<path d="M79.1896 108.823C79.7639 90.607 83.8382 67.1548 100.68 56.6163C119.809 44.6481 145.802 55.5155 163.157 65.6111C208.538 92.0184 242.261 138.857 264.108 185.672C267.42 176.86 270.168 168.152 272.408 159.548C257.814 132.642 239.884 107.261 218.423 85.3796C197.718 64.2751 172.764 44.751 144.09 36.0898C121.164 29.1643 95.482 31.4321 78.8561 50.2275C63.1518 67.9781 59.3504 93.585 59.8402 116.458C66.003 113.711 72.4672 111.114 79.1896 108.823Z" fill="#EE2A24"/>
<path d="M176.053 310.951C173.912 309.064 171.725 307.079 169.532 305.042C159.653 304.684 150.027 303.922 140.708 302.751C146.97 309.779 153.386 316.295 159.907 322.153C165.307 318.944 170.709 315.176 176.053 310.951Z" fill="#EE2A24"/>
<path d="M288.808 288.797C288.248 306.501 284.47 328.593 269.1 339.8C251.528 352.606 226.499 343.69 209.46 334.582C204.111 339.216 198.663 343.545 193.215 347.468C218.799 362.98 254.497 374.693 281.102 354.817C303.416 338.148 308.713 307.276 308.158 281.161C301.994 283.91 295.531 286.454 288.808 288.797Z" fill="#EE2A24"/>
<path d="M227.286 302.699C217.815 303.871 208.19 304.685 198.409 304.99C186.605 316.516 173.122 326.853 158.584 334.681C145.487 341.728 130.023 347.712 114.893 345.878C83.3585 342.063 78.0282 303.668 79.0867 278.202V277.949C79.5994 265.035 81.5006 251.9 84.7883 239.4C80.2059 230.743 76.0287 222.035 72.3634 213.275C64.1018 238.341 58.7954 265.021 59.9477 291.513C60.8325 311.884 65.8422 333.873 80.3749 349.036C117.443 387.703 177.629 350.824 208.086 322.154C214.606 316.244 221.024 309.728 227.286 302.699Z" fill="#0057A8"/>
<path d="M317.584 132.517C321.092 134.452 345.256 147.742 317.379 132.402C317.13 132.266 317.115 132.259 317.283 132.352C297.098 121.302 274.837 114.005 252.347 109.383C258.101 116.92 263.6 124.866 268.795 133.217C294.976 140.697 324.991 153.828 341.109 176.865C347.371 185.818 350.58 196.465 347.747 207.266C344.722 218.821 336.23 228.23 327.198 235.63C306.036 252.97 278.745 262.832 252.319 268.666C221.782 275.407 190.177 277.369 159.004 275.045C136.045 273.333 112.626 269.466 90.8537 261.806C89.9367 268.289 89.2255 274.862 89.2255 281.415C126.523 293.172 166.447 296.884 205.387 294.499C243.602 292.156 283.727 284.12 317.38 265.119C342.159 252.732 368.001 228.489 368.001 198.813C368 168.473 342.039 146.023 317.584 132.517Z" fill="#EE2A24"/>
<path d="M22.0904 185.038C31.9563 162.037 59.0545 147.905 81.1284 139.427C86.9954 137.009 93.0874 134.934 99.208 133.264C104.35 124.965 109.902 116.967 115.707 109.379C93.2473 113.995 70.6561 121.192 50.6239 132.498C49.6031 133.006 48.6383 133.519 47.6698 134.126H47.6183C23.8555 147.831 -0.725937 170.352 0.0174251 200.09C0.760787 229.946 26.4477 251.911 50.6248 265.215C51.2368 258.493 52.2522 251.619 53.579 244.694C33.7058 232.437 11.1706 210.485 22.0904 185.038Z" fill="#0057A8"/>
<circle cx="184" cy="199" r="38" fill="#0057A8"/>
</g>
<path d="M464.384 245H411.52C406.4 245 403.456 241.16 405.12 235.016L424.32 163.336C425.728 158.344 429.056 155.4 433.28 155.4H483.968C487.936 155.4 491.008 158.472 491.008 162.44C491.008 166.408 487.936 169.48 483.968 169.48H438.4L432.128 192.904H468.096C472.064 192.904 475.264 195.976 475.264 199.944C475.264 203.912 472.064 206.856 468.096 206.856H428.416L421.888 230.92H464.384C468.352 230.92 471.424 233.992 471.424 237.96C471.424 241.928 468.352 245 464.384 245ZM524.052 160.904L503.444 237.96C502.036 242.952 498.836 245.64 494.74 245.64C489.62 245.64 486.804 241.928 488.468 235.656L509.204 158.6C510.612 153.608 513.684 150.92 517.908 150.92C523.028 150.92 525.716 154.632 524.052 160.904ZM559.013 233.864C564.517 233.864 568.997 232.2 572.581 229.768C573.989 228.872 575.781 228.232 577.445 228.232C580.901 228.232 583.333 230.664 583.333 234.248C583.333 236.424 582.309 238.216 580.389 239.496C574.245 243.976 566.693 246.536 557.477 246.536C538.661 246.536 526.757 235.144 526.757 216.968C526.757 197 543.013 176.008 566.565 176.008C583.973 176.008 593.573 187.528 593.573 202.248C593.573 204.808 593.189 207.496 592.805 209.672C591.781 214.28 589.221 216.584 585.125 216.584H541.605V217.864C541.989 227.592 547.877 233.864 559.013 233.864ZM543.141 206.344H578.213C578.597 205.064 578.853 203.528 578.853 201.608C578.853 194.568 574.757 188.68 565.413 188.68C554.789 188.68 546.469 196.232 543.141 206.344ZM619.891 177.416L623.091 165.896C624.499 160.904 627.571 158.216 631.667 158.216C636.787 158.216 639.603 161.928 637.939 168.2L635.379 177.416H645.747C649.331 177.416 652.275 180.104 652.275 184.072C652.275 188.04 649.331 190.728 645.747 190.728H631.795L623.091 223.368C622.707 224.776 622.579 226.184 622.579 227.208C622.579 230.664 625.011 232.456 629.107 232.456C630.003 232.456 630.899 232.328 631.795 232.2C635.251 231.816 637.811 233.992 637.811 237.96C637.811 241.416 636.147 243.336 633.587 244.36C630.387 245.768 627.187 246.152 623.219 246.152C611.955 246.152 606.067 240.904 606.067 232.84C606.067 230.152 606.451 227.592 607.219 225.032L616.307 190.728H614.515C611.571 190.344 608.627 188.168 608.627 184.072C608.627 180.104 611.571 177.416 615.155 177.416H619.891ZM682.122 185.864L680.586 191.624C686.218 181.896 693.386 176.52 700.554 176.52C704.778 176.52 707.338 179.08 707.338 183.56C707.338 187.784 705.162 190.344 700.042 191.752C687.242 194.696 677.642 203.144 673.162 219.912L668.298 237.96C666.89 242.952 663.69 245.64 659.594 245.64C654.474 245.64 651.658 241.928 653.322 235.656L667.146 184.456C668.554 179.464 671.626 176.648 675.722 176.648C680.842 176.648 683.53 180.36 682.122 185.864ZM739.879 246.536C720.551 246.536 708.135 233.48 708.135 215.688C708.135 195.208 725.671 176.008 747.559 176.008C766.887 176.008 779.303 189.064 779.303 206.984C779.303 227.592 761.383 246.536 739.879 246.536ZM740.775 233.096C753.703 233.096 763.943 219.528 763.943 207.368C763.943 195.976 756.903 189.448 746.663 189.448C733.351 189.448 723.495 203.144 723.495 215.176C723.495 226.568 730.535 233.096 740.775 233.096ZM810.853 176.648C815.461 176.648 817.893 179.72 817.765 183.304L816.997 185.992C822.501 180.744 828.901 176.008 837.605 176.008C850.021 176.008 858.085 183.816 858.085 196.232C858.085 199.816 857.061 204.168 856.037 208.136L848.101 237.96C846.693 242.952 843.621 245.64 839.525 245.64C834.405 245.64 831.589 241.928 833.253 235.656L840.805 207.496C841.445 205.32 841.829 202.632 841.829 200.712C841.829 193.928 837.605 190.088 830.053 190.088C821.349 190.088 814.181 196.872 811.493 206.984L803.173 237.96C801.765 242.952 798.693 245.64 794.597 245.64C789.477 245.64 786.661 241.928 788.325 235.656L802.021 184.456C803.429 179.208 806.373 176.648 810.853 176.648Z" fill="#EE2A24"/>
<path d="M1001.83 167.432L990.692 208.776C987.62 220.424 983.012 229.256 976.868 235.4C969.572 242.696 959.716 246.408 946.404 246.408C925.54 246.408 912.868 235.272 912.868 216.2C912.868 211.72 913.636 206.856 915.044 201.864L925.028 164.488C926.692 158.216 930.916 154.632 936.036 154.632C942.564 154.632 946.148 159.24 943.972 167.432L934.244 203.656C933.348 206.728 932.836 209.672 932.836 213.384C932.836 222.216 938.212 228.232 948.452 228.232C954.212 228.232 959.076 226.312 963.044 222.6C967.012 218.632 969.828 213.128 971.748 205.96L982.884 164.488C984.548 158.216 988.772 154.632 993.892 154.632C1000.42 154.632 1004 159.24 1001.83 167.432ZM1043.26 167.432L1024.83 235.912C1023.16 242.184 1018.94 245.768 1013.82 245.768C1007.29 245.768 1003.71 241.16 1005.88 232.968L1024.31 164.488C1025.98 158.216 1030.2 154.632 1035.32 154.632C1041.85 154.632 1045.43 159.24 1043.26 167.432Z" fill="#0057A8"/>
<defs>
<clipPath id="clip0_5_60">
<rect width="368" height="368" fill="white" transform="translate(0 15)"/>
</clipPath>
</defs>
</svg>
